<svg viewBox="0 0 500 500" xmlns="http://www.w3.org/2000/svg">
  <defs></defs>
  <ellipse style="fill: #ff22e5;" cx="253.368" cy="244.707" rx="221.203" ry="221.203"></ellipse>
  <path d="M 246.834 49.092 C 245.247 50.309 239.274 55.705 233.559 61.084 C 226.604 67.631 221.976 71.195 219.559 71.866 C 217.463 72.448 201.232 72.871 180.854 72.874 C 148.129 72.88 145.647 73.003 144.104 74.709 C 142.643 76.324 142.449 79.994 142.449 106.086 C 142.449 128.533 142.149 135.872 141.199 136.62 C 140.512 137.162 137.474 137.88 134.449 138.216 C 125.157 139.247 125.449 138.076 125.449 174.3 C 125.449 198.914 125.734 205.887 126.799 207.344 C 127.765 208.664 129.83 209.318 134.049 209.638 C 137.817 209.923 140.401 210.659 141.199 211.673 C 142.174 212.913 142.449 230.213 142.449 290.447 L 142.449 367.632 L 136.78 368.102 C 132.182 368.484 130.669 369.085 128.78 371.282 C 126.528 373.9 126.449 374.594 126.449 391.745 C 126.449 404.705 126.799 409.976 127.745 411.27 C 128.974 412.952 135.484 413.036 254.459 412.923 C 368.442 412.813 380.04 412.655 381.663 411.186 C 383.239 409.76 383.449 407.645 383.449 393.175 C 383.449 374.813 382.732 372.068 377.35 369.839 C 375.594 369.112 371.185 368.261 367.553 367.948 L 360.949 367.38 L 360.693 289.758 C 360.479 224.784 360.661 211.949 361.816 210.991 C 362.574 210.361 367.158 209.625 372.003 209.355 C 385.402 208.606 384.449 211.251 384.449 174.807 C 384.449 157.887 384.168 143.313 383.826 142.419 C 383.483 141.526 381.458 139.905 379.326 138.817 L 375.449 136.839 L 375.449 107.783 L 375.449 78.726 L 372.526 75.803 L 369.603 72.88 L 330.591 72.88 C 307.615 72.88 290.523 72.478 289.009 71.903 C 287.596 71.366 282.054 67.003 276.694 62.209 C 258.244 45.705 259.939 46.88 254.581 46.88 C 251.099 46.88 248.9 47.508 246.834 49.092 M 249.76 66.027 C 247.114 68.308 231.336 83.573 214.699 99.95 C 188.727 125.515 184.449 130.139 184.449 132.648 C 184.449 136.353 186.828 138.506 192.275 139.729 C 197.358 140.872 201.386 143.42 215.449 154.396 C 239.508 173.172 252.953 182.88 254.89 182.874 C 256.023 182.871 270.172 172.971 286.332 160.874 C 302.493 148.777 316.443 138.877 317.332 138.874 C 318.222 138.871 320.633 138.401 322.691 137.83 C 327.02 136.627 328.401 133.492 326.283 129.674 C 324.211 125.94 257.31 61.88 255.483 61.88 C 254.981 61.88 252.406 63.746 249.76 66.027 M 165.645 88.593 C 162.74 89.148 161.449 92.487 161.449 99.445 C 161.449 103.655 161.928 105.359 163.577 107.008 C 165.538 108.969 166.487 109.097 175.734 108.652 C 187.85 108.069 188.449 107.555 188.449 97.746 C 188.449 88.851 187.136 87.827 175.976 88.016 C 171.561 88.091 166.912 88.351 165.645 88.593 M 321.449 88.574 C 318.605 89.591 317.449 92.279 317.449 97.88 C 317.449 106.526 318.447 107.314 329.93 107.729 C 339.25 108.066 339.607 108.164 340.559 110.67 C 341.101 112.096 341.258 115.563 340.906 118.374 C 340.069 125.076 341.274 126.071 350.144 126.003 C 355.37 125.962 357.214 125.555 358.187 124.224 C 359.825 121.984 359.94 95.053 358.327 91.512 C 357.71 90.158 356.248 88.793 355.077 88.478 C 352.414 87.764 323.486 87.846 321.449 88.574 M 141.006 149.103 C 137.407 154.241 139.077 156.574 151.949 164.385 C 171.924 176.507 179.055 182.189 210.949 211.399 C 243.905 241.581 252.389 248.88 254.517 248.88 C 257.273 248.88 277.409 231.214 309.522 200.621 C 326.297 184.641 338.961 174.838 355.25 165.224 C 368.683 157.296 369.449 156.634 369.449 152.964 C 369.449 147.125 368.294 146.88 340.768 146.88 C 316.403 146.88 315.663 146.939 312.645 149.13 C 310.94 150.368 304.461 155.235 298.247 159.947 C 277.753 175.487 259.349 189.031 256.519 190.655 C 253.916 192.148 253.567 192.126 251.216 190.317 C 249.832 189.252 238.696 180.505 226.47 170.88 C 214.244 161.255 202.214 151.917 199.736 150.13 L 195.231 146.88 L 168.897 146.88 C 142.817 146.88 142.547 146.902 141.006 149.103 M 138.737 174.631 C 138.621 180.543 138.752 186.13 139.028 187.046 C 139.778 189.533 144.834 190.882 153.348 190.865 C 166.409 190.84 169.786 186.882 162.827 179.755 C 159.048 175.885 141.707 163.879 139.899 163.881 C 139.371 163.882 138.855 168.656 138.737 174.631 M 363.886 167.228 C 356.269 171.584 347.639 177.823 345.542 180.489 C 342.89 183.86 342.894 186.068 345.554 188.475 C 347.304 190.059 349.216 190.38 356.899 190.38 C 369.517 190.38 369.449 190.456 369.449 176.258 C 369.449 170 369.112 164.885 368.699 164.892 C 368.286 164.899 366.12 165.95 363.886 167.228 M 185.449 217.589 C 184.624 217.893 183.162 218.827 182.199 219.665 C 180.561 221.092 180.449 226.016 180.449 296.335 C 180.449 353.448 180.161 371.768 179.249 372.68 C 178.427 373.502 173.465 373.885 163.499 373.895 C 143.783 373.915 144.032 373.764 143.655 385.907 C 143.386 394.588 143.542 395.526 145.516 397.13 C 147.538 398.772 154.227 398.88 254.126 398.88 C 361.335 398.88 363.457 398.815 365.684 395.48 C 366.088 394.875 366.425 391.143 366.434 387.186 C 366.447 381.012 366.107 379.593 364.038 377.186 L 361.627 374.38 L 343.858 373.88 L 326.088 373.38 L 325.273 370.38 C 324.824 368.73 324.523 341.371 324.604 309.582 C 324.701 271.851 324.402 251.433 323.743 250.774 C 323.189 250.22 320.308 249.904 317.342 250.073 L 311.949 250.38 L 311.657 259.328 C 311.338 269.115 310.554 270.88 306.527 270.88 C 302.254 270.88 301.449 269.214 301.449 260.38 C 301.449 255.413 300.985 251.816 300.249 251.08 C 299.45 250.281 295.077 249.88 287.176 249.88 L 275.302 249.88 L 267.002 257.829 C 258.073 266.38 254.841 267.951 250.681 265.758 C 249.244 265 237.988 254.93 225.668 243.38 C 199.759 219.089 196.822 216.848 191.049 216.959 C 188.794 217.002 186.274 217.286 185.449 217.589" stroke="none" fill="black" fill-rule="evenodd"></path>
</svg>
