<svg xmlns="http://www.w3.org/2000/svg" viewBox="280 784 75 131">
  <path
    d="M325.8 877.2l-0.1 0.6-0.7 0 0-0.4 0.8-0.2z m0 0l0.8 0.2 0 0.4-0.8 0 0-0.6z m-0.6-0.4l0.3 0.4-1.1 0.4-0.1-0.2 0.9-0.6z m-1.8-8.6l0.5 0.5 0.1 0.6-0.6-0.1 0-1z m-2.4-2.7l0.4 0.2 0.4 0.8-0.6-0.1-0.2-0.9z m-0.5-1.2l0.3 0.2 0.2 0.7-0.4 0.2-0.1-1.1z m-37.7-76.5l0.5 0.1 0.3-0.2 1.6-0.6 0.5 0.2 0.9-0.4 0.1 0.7-0.4 0.6 0.3 0.7 0.9-0.1 0.3 0.1 0.2 0.8-0.3 0 0.1 0.7 0.6 0.1 0.4-0.2 0-0.7 0.5-0.1 0.3 0.5 0.8 0.1 0.5 0.2-0.3 0.6 0.1 0.7 0.4 0.1 0.4-0.4 0.5 0.1-0.1 0.5 0.3 0.3 0.1 0.7 0.7 0.2 1.1-1.3 0.6 0.3 0.4 0.9-0.6-0.2-0.6 0.6 0.3 1 0.6 0 0 0.6 0.5 0.2 0.4 0.1 0.1 0.6 0 0.3 0.4-0.1 0.5-0.5 0.1-0.3 0.1-0.1 0.2-0.1 0.3-0.1 0.1 0.2 0.3-0.2 0.3 0.9-0.3 0.3-0.3 0.2-0.3 0.1-0.7-0.2 0.1 0.1-0.1 1.1 0.3 0.6 0.5 0.2 0.2 0.1 0 0.1 0.4 0.1 0.1 0.2-0.2 0.5-0.1 0.2 0.4 0.8 0.2 0.2-0.3 0.4 0.3-0.1 0.3 0 0.7-0.1 0.4 0.2 0.3 0.6 0.3 0.1 0.2 0.2 0 0.1 0.2 0.4 0 0.1 0.1 0.1 0.1 0.3 0.3 0.3-0.1 0.3 0.2 0.1 0.1 0.1 0.2 0.2 0.3 0.5 0.5 0.4 0.3 0.2 0.1 0 0.3-0.1 0.5 0.1 0.1 0.1 0.2 0 0.2 0.3 0 0.3 0.5 0.8 0.3 0 0.5-0.3 0.3 0.4 0.1 0.1 0.2 0.4 0.1 0.2 1.3-0.5 0.9 0.2 0.1 1.2 0.7 0.7 0 0.6 0.5 0.4 0.2 0.3 0.7 0.5 1.5 0.3 0.4-0.1 0.8 0.2 0.6 0.1 0.2-0.3 0.7 0 1.2-0.8 0.5 0 0.4-0.2 0 3.3 0.5 0.2 0.4-0.4 1.2-0.2 0.5 0.5 0.1 0.8 0.3 0.5 0.8 0.2 0.8-0.2 0.2 0.4 0.5 0.3 0.3 0.9 0.6 0.4 0.6-0.3 0.5 0.1 0.8-0.4 0.4 0.8-0.4 0.4 0 0.7 0.2 0.5 0.4 0.2 0.2 0.7-0.3 0.2-1.1 0.1-0.3 0.8-1 0.4-0.1-0.3-0.9 0.7-0.2-0.4-0.5-0.4-1.3 0.8 0.5 1.1-0.3 0.2 0.4 0.7-0.2 0.9 0.5-0.3 0.6-0.1 1.1 0.9 0.4-0.4 0.8 0.3 0.8 0.5 0.5-0.1-0.1 0.5 1.1 0.9 1.7 0.6 0 0.4 0.8-0.1 0 0.8-0.7 1.7-1.8 0.8-0.1 0.9 0.3 0.5 0.3-0.5 1.1-0.1 0.4 0.4 1.6-0.2 0.6 0 0.6 0.3 2-1.3 0.9 0.7-0.2 0.6-0.4 0.2-0.6 0.6 0.3 0.7 1.2 0.6-0.1 0.5 0.3 0.2-0.3 0.6 0 0.4 0.4 0.1 0.2 0.6-1.2-0.2-0.6 0.4-0.3 0.5-0.1 0.5-0.5 0.6-0.2 1.1 0.9 0.5 0.4 0 0.9 0.6 1.1 0 0.4 0.3 0.8 0.2 0.8 1-0.2 0.3 0.6 0.5 0.8-0.1 0.2 0.9-0.1 0.5-0.5 1.2-0.5 1 0.4 0.2 0 1-1.8 0.1 0 0.3 0.3 0.7 0.4 0.1-0.2 1.4 0.2 0.2-0.3 1.1-0.1 1.4-0.2 0.7 0.4 0.6-0.2 0.2 0.6 0.7-0.3 0.6-0.2 1.2 0.3 0.3 0.9 0.1 0 0.4 0.6 0.3 0.2 0.6 0.5 0.3 0.5-0.2 0.8 0.3 0.6 0 1-0.6 0.6-0.2 0.2-0.7 0.7-0.6 1.2-0.4 1.3-1 1.6 0.1-0.2 1 1 1.5 0 0.8 0.5 0 0.3 0.4-0.4 0.8-0.2 0.7 0.1 0.7-0.2 0.5-0.7-0.2-1.1 0.7 0.2 0.6 0.2 0.1 1.3 1.5-0.3 0.3 0.3 0.9 0.3 0.2-0.3 0.6-0.3 0-0.5 0.6-0.5 0.8-0.1 0.7 0.7 0.7-0.2 0.8 0.4 0.7-0.6 0.2 0.1 0.7-0.2 0.9-0.5 0.2 0.1 0.8-0.3 0.7-0.4 0.4-0.3 0.9 0 0.4 0.5 0.1 0.3-0.2 1 0.9 1.1 0.2 0.7-0.6 0.5-0.2 0.4 0.7 0.8 0.8 0 0.4 0.6 0.5 0.7 0.3-0.4 0.5 0.1 0.3-0.4 0.6-0.5-0.1-0.5 0.5-0.4 0.7 0.2 0.3-0.2 0.5 0 0.7-0.9 1.2-0.6 0.5 0.1 0.8-0.3 1 0.2 0.5-0.4 0.5 0 1.3-0.5 0.7-0.6 0.3-0.4 0.5-0.1 0.7-0.3 0.5-0.8 0.3-0.5 0.6 0 0.4 0.7 0.6 0.1 0.4 0.5 0.4 0 0.9 0.3-0.2 0.4 0.8 0.5 0.3 0.4 0.4 0.2 1-0.8 1-0.1 0.6-1 1.1-0.6-0.1 0.3 0.9 0.3 0.2 0.6 1.6 0.8 0.8 0 0.4 0.6 0.8 0.4 0.9-0.5 1-0.7 0.3-0.4-0.4-0.4 0.4 0.5 1.4-0.6 0.1-0.2 0.7-0.8 0.9-0.5 0 0.6 0.9-0.2 0.6-0.7 0-0.5 0.6-0.4 0.1-2-1.6-0.4-0.4-0.6-0.3-0.5-1-2-2.4-0.7-0.9-2.1-2.6-0.5-0.7-1.8-2.2-0.6-1-1.7-2.2-0.7-0.6-0.7-0.2-0.4-0.4-0.3-0.6-0.4-1.4-0.2-1.4-0.3-0.3-0.7-1.8-0.6-1.3-1.4-3.1-1.6-3.5-0.6-2-0.5-2-0.3-1.8-0.5-4.5-0.6-3.6-0.7-2.4 0.7 0.1 0.2 0.8 0.7 0.3-0.2 0.5-0.8 0.1 0.3 0.9 0.4-0.1 0.2-0.6 1.1 0.6 0.3 0.4 0 0.6 0.8 0.5-0.3 0.6 0.2 0.5 0.1 1-0.1 0.4 0 0.9 0.2 0.3 0.5 0.1 0 0.6-0.7 1.3 0 0.8-0.2 0.2-0.2 1 0.1 0.4 4-0.1-2.3-0.9 0-0.3 0.3-1.1-0.3-0.7-0.4-0.3 0-0.7 0.3-0.7-0.8-0.2 0.2-1-0.2-0.5-0.3-0.4-0.1-0.6 0.4-0.4 0-0.9-0.6-1.4-0.2-0.5-0.6-0.1 0.3 0.8-0.7-0.1-0.1-0.7-0.4-0.6-0.2-0.2-0.6-1.3 0-0.7-0.5-0.7-0.1-0.4 0.3-0.5 0-0.4-1.1-1.1-0.5-0.2 1 2.9-0.1 0.6 0.2 0.6-0.5 0.3-0.2-0.9-0.4-1.3-0.6-2.1-0.6-1.6-0.6-2-0.6-2.3-1-2.4-2.2-4.5-0.1-0.3-1.7-3.8-0.6-1.5-0.9-4.3-0.6-2.3-0.3-1.1-0.3-1.1-0.7-1.6-0.2 0-0.8-2.2-0.7-2.1-0.3-0.5 0.1-0.4-1-1.9-0.6-0.9-0.9-0.5-0.4 0.2-0.4-0.4 0-0.4-0.9-2.5-0.8-2.1-0.7-1.4-0.6-0.8-1-0.8-0.5-0.2-0.3-0.8-1-1.1-0.8-0.6-0.3 0.2-1.1-1.5-0.7-1 0.1-0.6-0.4-0.7-0.7-0.6 0.4-0.4 0.6 0.2 0.3-1-0.2-0.1-0.1-0.1-0.1-0.2 0.5-0.6-0.2-0.4 0.3-0.2 0.3 0.2 0.2 0.1 0.4-0.3 0.5-0.4 0.3 0 0-0.2 0.3 0.1 0.3-0.2-0.1-0.2-0.3-0.2-0.3 0-0.1 0-0.2 0.3-0.5-0.1-0.6-0.1-0.1 0-0.3 0.2 0 0.1-0.7 0.5-0.2 0.4-0.3-0.1-0.3-0.1-0.2 0.1-0.2-0.1-0.1-0.1-0.4 0.2-0.1 0.1 0.1 0.4 0 0.2 0 0.1 0 0.6 0.1 0.3 0.1 0.6-0.7 0.5-0.5-0.9-0.3-1.3-0.1-0.9-0.5-0.9-0.1-0.6-0.4-0.5-0.2-0.7-0.3 0.2-1.2-3.2-0.8-1.7-0.8-1-0.6-1.5-0.5-0.8-0.4-1-1.4-3.5-0.7-1.5-0.5-1.2z"
    fill="#bfdbfe"
    stroke="#3b82f6"
    stroke-width="0.5"
  />
</svg>
